<?xml version="1.0" encoding="UTF-8" standalone="no"?>
<!DOCTYPE svg PUBLIC "-//W3C//DTD SVG 1.1//EN" "http://www.w3.org/Graphics/SVG/1.1/DTD/svg11.dtd">
<svg width="100%" height="100%" viewBox="0 0 5138 4820" version="1.1" xmlns="http://www.w3.org/2000/svg" xmlns:xlink="http://www.w3.org/1999/xlink" xml:space="preserve" xmlns:serif="http://www.serif.com/" style="fill-rule:evenodd;clip-rule:evenodd;stroke-linecap:round;stroke-linejoin:round;stroke-miterlimit:1.5;">
    <g id="アートボード1" transform="matrix(1.0868,0,0,0.999422,589.921723,0)">
        <g>
            <rect x="-542.806" y="0" width="4727.324" height="4822.186" style="fill:none;"/>
            <clipPath id="_clip1">
                <rect x="-542.806" y="0" width="4727.324" height="4822.186"/>
            </clipPath>
            <g clip-path="url(#_clip1)">
                <g transform="matrix(0.992176,0,0,1.078921,-468.261551,-664.034116)">
                    <path d="M2302.999,1782.464C2967.988,1782.464 3507.874,2322.35 3507.874,2987.338C3507.874,3652.327 2967.988,4192.213 2302.999,4192.213C1638.011,4192.213 1098.125,3652.327 1098.125,2987.338C1098.125,2322.35 1638.011,1782.464 2302.999,1782.464ZM2302.999,1812.585C2951.363,1812.585 3477.752,2338.975 3477.752,2987.338C3477.752,3635.702 2951.363,4162.091 2302.999,4162.091C1654.636,4162.091 1128.247,3635.702 1128.247,2987.338C1128.247,2338.975 1654.636,1812.585 2302.999,1812.585Z" style="fill:rgb(79,43,50);stroke:rgb(79,43,50);stroke-width:0.93px;"/>
                </g>
                <g transform="matrix(2.368707,0,0,2.5758,-3625.085384,-3666.022122)">
                    <path d="M2297.373,1990.072C2532.868,1990.072 2724.06,2181.264 2724.06,2416.759C2724.06,2652.254 2532.868,2843.446 2297.373,2843.446C2061.878,2843.446 1870.686,2652.254 1870.686,2416.759C1870.686,2181.264 2061.878,1990.072 2297.373,1990.072ZM2297.373,1996.899C2529.1,1996.899 2717.233,2185.032 2717.233,2416.759C2717.233,2648.486 2529.1,2836.619 2297.373,2836.619C2065.646,2836.619 1877.513,2648.486 1877.513,2416.759C1877.513,2185.032 2065.646,1996.899 2297.373,1996.899Z" style="fill:rgb(79,43,50);stroke:rgb(79,43,50);stroke-width:1.62px;"/>
                </g>
                <g id="横線" transform="matrix(0.861878,0,0,1.000579,-236.756882,1754.055401)">
                    <path d="M4821.182,804.546C4821.182,805.257 4821.064,805.244 4820.511,805.731C4819.738,806.412 4818.598,806.649 4818.416,806.686C4800.686,810.365 4783.073,814.581 4765.221,817.699C4747.27,820.835 4729.225,823.634 4711.067,825.438C4690.851,827.447 4670.532,828.805 4650.206,829.13C4593.413,830.036 4536.605,829.13 4479.804,829.13L316.082,829.13C259.5,829.11 202.908,829.949 146.335,828.999C128.796,828.704 111.266,827.366 93.851,825.397C78.159,823.623 62.593,820.878 47.137,817.783C23.338,813.017 23.234,813.342 0,806.564C-1.531,806.117 -1.432,805.897 -2.154,804.556C-2.158,804.548 -1.539,803.398 -1.521,803.381C-0.786,802.694 0.25,802.447 0.421,802.406C15.991,798.7 31.427,794.456 47.137,791.31C62.593,788.215 78.159,785.47 93.851,783.695C111.266,781.726 128.796,780.389 146.335,780.094C154.147,779.963 499.711,779.963 530.439,779.963L4650.206,779.963C4670.532,780.288 4690.851,781.646 4711.067,783.655C4729.225,785.459 4747.27,788.258 4765.221,791.393C4765.829,791.5 4818.846,802.5 4818.908,802.532C4819.443,802.808 4820.066,802.97 4820.511,803.362C4821.064,803.849 4821.182,803.836 4821.182,804.546Z" style="fill:rgb(79,43,50);"/>
                </g>
                <g transform="matrix(0.920132,0,0,0.94106,-873.844118,173.437753)">
                    <path d="M2897.021,569.938L2897.021,146.335C2897.336,128.752 2898.826,111.179 2901.007,93.745C2902.974,78.031 2906.018,62.469 2909.446,47.041C2914.734,23.243 2914.381,23.117 2921.882,0C2922.42,-1.656 2922.633,-1.56 2924.095,-2.363C2924.103,-2.367 2925.34,-1.688 2925.358,-1.669C2926.127,-0.849 2926.414,0.233 2926.462,0.417C2930.57,15.956 2935.272,31.332 2938.763,47.041C2942.191,62.469 2945.235,78.031 2947.202,93.745C2949.383,111.179 2950.874,128.752 2951.188,146.335C2952.203,203.117 2951.188,259.919 2951.188,316.711L2951.188,569.938L2897.021,569.938ZM2951.188,590.58L2951.188,4495.911C2951.103,4552.763 2951.753,4609.626 2950.61,4666.465C2950.24,4684.846 2948.807,4703.218 2946.65,4721.46C2944.705,4737.907 2941.689,4754.21 2938.321,4770.395C2933.221,4794.897 2933.591,4795.02 2926.327,4818.898C2925.816,4820.578 2925.25,4820.118 2924.115,4821.404L2924.095,4821.404C2923.401,4820.532 2922.579,4819.78 2921.885,4818.908C2921.788,4818.786 2921.785,4818.607 2921.747,4818.453C2917.786,4802.435 2913.254,4786.565 2909.888,4770.395C2906.52,4754.21 2903.504,4737.907 2901.559,4721.46C2899.402,4703.218 2897.969,4684.846 2897.599,4666.465C2896.456,4609.626 2897.106,4552.763 2897.021,4495.911L2897.021,590.58L2951.188,590.58Z" style="fill:rgb(79,43,50);"/>
                </g>
                <g transform="matrix(1.998081,0,0,2.664144,-3056.515017,-3964.415273)">
                    <path d="M2438.909,2293.463C2438.909,2293.463 2444.083,2316.804 2455.605,2339.63C2466.527,2361.269 2483.512,2382.139 2494.452,2393.079C2505.005,2403.632 2519.878,2419.132 2540.884,2429.833C2564.631,2441.931 2594.068,2448.622 2594.068,2448.622C2594.068,2448.622 2569.55,2452.905 2552.032,2461.373C2527.955,2473.012 2507.466,2491.151 2494.452,2504.165C2487.334,2511.284 2466.664,2537.634 2458.809,2551.529C2441.858,2581.514 2438.909,2603.781 2438.909,2603.781C2438.909,2603.781 2432.55,2578.201 2419.926,2553.639C2409.449,2533.253 2393.563,2514.361 2383.367,2504.165C2371.479,2492.277 2348.993,2473.292 2326.027,2461.941C2305.562,2451.825 2283.751,2448.622 2283.751,2448.622C2283.751,2448.622 2308.937,2443.176 2333.291,2430.688C2353.841,2420.151 2373.078,2403.368 2383.367,2393.079C2395.936,2380.51 2412.562,2358.801 2424.119,2335.096C2433.232,2316.403 2438.909,2293.463 2438.909,2293.463Z" style="fill:rgb(79,43,50);stroke:rgb(79,43,50);stroke-width:16.14px;"/>
                </g>
                <g transform="matrix(0.672664,0,0,0.731474,1377.857056,1523.946678)">
                    <circle cx="652.283" cy="1415.116" r="145.406" style="fill:white;stroke:white;stroke-width:53.65px;"/>
                </g>
                <g transform="matrix(1.902863,0,0,2.069227,-2800.904929,-2694.017454)">
                    <path d="M2426.673,2041.792C2700.907,2041.792 2923.551,2264.435 2923.551,2538.669C2923.551,2812.904 2700.907,3035.547 2426.673,3035.547C2152.438,3035.547 1929.795,2812.904 1929.795,2538.669C1929.795,2264.435 2152.438,2041.792 2426.673,2041.792ZM2426.673,2100.248C2668.644,2100.248 2865.094,2296.698 2865.094,2538.669C2865.094,2780.641 2668.644,2977.091 2426.673,2977.091C2184.701,2977.091 1988.251,2780.641 1988.251,2538.669C1988.251,2296.698 2184.701,2100.248 2426.673,2100.248Z" style="fill:rgb(79,43,50);stroke:rgb(79,43,50);stroke-width:2.01px;"/>
                </g>
                <g transform="matrix(0.287145,0.290506,-0.971198,1.135157,2665.856294,320.685669)">
                    <path d="M1952.834,1879.904L2034.574,2020.646L1876.668,2020.646L1952.834,1879.904Z" style="fill:rgb(79,43,50);stroke:rgb(79,43,50);stroke-width:3.3px;"/>
                </g>
                <g transform="matrix(0.277029,-0.301898,1.009282,1.095167,-211.584962,1558.853701)">
                    <path d="M1968.625,1879.904L2034.574,2020.646L1876.668,2020.646L1968.625,1879.904Z" style="fill:rgb(79,43,50);stroke:rgb(79,43,50);stroke-width:3.3px;"/>
                </g>
                <g transform="matrix(-0.287229,-0.290408,0.97087,-1.135489,968.228807,4799.583715)">
                    <path d="M1951.906,1879.904L2034.574,2020.646L1876.668,2020.646L1951.906,1879.904Z" style="fill:rgb(79,43,50);stroke:rgb(79,43,50);stroke-width:3.3px;"/>
                </g>
                <g transform="matrix(-0.278076,0.300758,-1.005472,-1.099304,3841.532975,3569.447458)">
                    <path d="M1967.696,1879.904L2034.574,2020.646L1876.668,2020.646L1967.696,1879.904Z" style="fill:rgb(79,43,50);stroke:rgb(79,43,50);stroke-width:3.3px;"/>
                </g>
                <g transform="matrix(1.093701,0,0,1.489696,-745.142098,-338.0371)">
                    <path d="M2342.379,666.805C3022.418,666.805 3574.523,751.229 3574.523,855.216C3574.523,959.202 3022.418,1043.626 2342.379,1043.626C1662.341,1043.626 1110.236,959.202 1110.236,855.216C1110.236,751.229 1662.341,666.805 2342.379,666.805ZM2342.379,703.379C2890.41,703.379 3335.342,771.415 3335.342,855.216C3335.342,939.017 2890.41,1007.052 2342.379,1007.052C1794.349,1007.052 1349.417,939.017 1349.417,855.216C1349.417,771.415 1794.349,703.379 2342.379,703.379Z" style="fill:rgb(79,43,50);"/>
                </g>
                <g transform="matrix(0.920132,0,0,1.000579,-542.806136,0)">
                </g>
            </g>
        </g>
    </g>
</svg>
